<svg fill="none" height="1023" viewBox="0 0 1023 1023" width="1023"
    xmlns="http://www.w3.org/2000/svg">
    <path
        d="M315.968 549.454C315.846 549.227 315.701 549.011 315.54 548.815C315.374 548.612 315.188 548.427 314.991 548.268C314.79 548.105 314.577 547.962 314.356 547.844C314.13 547.724 313.892 547.624 313.629 547.543C313.391 547.475 313.139 547.422 312.886 547.395C312.628 547.369 312.343 547.368 312.119 547.392C311.871 547.413 311.618 547.461 311.357 547.537C311.114 547.609 310.879 547.703 310.65 547.818C310.187 548.057 309.782 548.38 309.448 548.777C309.284 548.972 309.138 549.184 309.018 549.403C308.894 549.626 308.79 549.863 308.713 550.102C308.636 550.338 308.582 550.592 308.55 550.872C308.526 551.123 308.526 551.379 308.548 551.631C308.572 551.889 308.622 552.143 308.695 552.386C308.766 552.619 308.862 552.855 308.987 553.094C309.109 553.323 309.253 553.536 309.416 553.735C309.577 553.932 309.761 554.115 309.967 554.283C310.161 554.439 310.372 554.58 310.605 554.707C310.836 554.829 311.074 554.927 311.293 554.993C311.538 555.071 311.797 555.126 312.061 555.152C312.199 555.167 312.336 555.174 312.475 555.174C312.595 555.174 312.714 555.168 312.837 555.157C313.096 555.133 313.351 555.085 313.59 555.014C313.824 554.947 314.064 554.851 314.301 554.731C314.527 554.616 314.744 554.473 314.951 554.31C315.151 554.15 315.338 553.97 315.512 553.765C315.674 553.57 315.817 553.362 315.945 553.133C316.066 552.908 316.166 552.674 316.242 552.434C316.325 552.17 316.377 551.919 316.398 551.686C316.426 551.431 316.428 551.172 316.404 550.913C316.381 550.66 316.332 550.409 316.258 550.159C316.188 549.924 316.091 549.689 315.968 549.454ZM320.39 512.863C319.288 512.863 318.211 513.239 317.356 513.921C316.349 514.723 315.72 515.865 315.587 517.138C315.453 518.405 315.826 519.645 316.638 520.632C317.56 521.752 318.929 522.396 320.399 522.396C321.5 522.396 322.578 522.02 323.433 521.338C324.44 520.537 325.067 519.395 325.202 518.122C325.336 516.855 324.962 515.614 324.15 514.627C323.229 513.506 321.858 512.863 320.39 512.863ZM321.902 517.781C321.86 518.177 321.666 518.532 321.352 518.782C320.721 519.285 319.722 519.181 319.211 518.561C318.959 518.254 318.843 517.869 318.885 517.477C318.927 517.081 319.122 516.726 319.437 516.476C319.709 516.259 320.04 516.144 320.392 516.144C320.855 516.144 321.287 516.346 321.577 516.697C321.827 517.004 321.943 517.389 321.902 517.781ZM347.32 527.861L336.555 514.767L324.723 524.194C323.303 525.326 321.513 525.948 319.684 525.948C317.244 525.948 314.969 524.884 313.443 523.027C312.105 521.401 311.491 519.356 311.71 517.27C311.931 515.173 312.968 513.29 314.63 511.965L326.485 502.519L313.871 487.177C312.687 485.738 310.928 484.91 309.043 484.91C307.804 484.91 306.588 485.281 305.567 485.961L297.699 477.367C296.623 476.187 295.144 475.493 293.537 475.41C291.927 475.321 290.379 475.871 289.19 476.923L250.233 523.271C248.19 525.664 247.851 528.57 249.265 530.79C247.307 532.393 246.085 534.65 245.821 537.158C245.553 539.7 246.301 542.189 247.93 544.171L276.99 579.517C278.84 581.766 281.589 583.057 284.535 583.057C286.744 583.057 288.906 582.302 290.623 580.935L298.359 574.771C300.864 576.818 304.008 577.935 307.305 577.935C310.493 577.935 313.614 576.849 316.092 574.875C320.082 571.695 321.985 566.546 321.05 561.599C321.067 561.586 321.082 561.575 321.098 561.562C323.918 559.315 325.71 556.149 326.174 552.611L346.398 536.497C347.693 535.466 348.5 533.996 348.673 532.36C348.845 530.729 348.364 529.13 347.32 527.861ZM292.924 480.971C293.009 480.91 293.111 480.878 293.219 480.878V479.885L293.246 480.879C293.384 480.886 293.504 480.942 293.596 481.043L301.234 489.385L254.712 526.45L292.924 480.971ZM312.623 570.604C311.122 571.799 309.23 572.458 307.297 572.458C304.718 572.458 302.313 571.332 300.699 569.369C298.103 566.211 298.224 561.75 300.832 558.748L301.018 559.005C301.147 559.178 301.279 559.349 301.414 559.515C301.556 559.687 301.702 559.856 301.839 560.005L301.965 560.141L302.686 559.45L302.035 560.215L303.246 561.355C303.349 561.442 303.452 561.527 303.557 561.609L303.742 561.751C303.851 561.834 303.962 561.916 304.069 561.993L304.256 562.123C304.375 562.206 304.492 562.287 304.603 562.357L304.766 562.46L305.334 561.636L304.892 562.538L305.153 562.697C305.332 562.801 305.511 562.901 305.732 563.016C305.917 563.114 306.106 563.206 306.346 563.318C306.471 563.376 306.596 563.431 306.744 563.493L306.936 563.576C307.858 563.951 308.815 564.23 309.783 564.404C311.649 564.739 313.603 564.692 315.45 564.272L315.573 564.245C315.635 564.229 315.696 564.215 315.758 564.199C315.731 566.66 314.589 569.037 312.623 570.604ZM320.715 551.683C320.481 553.901 319.385 555.892 317.628 557.292C317.254 557.589 316.844 557.861 316.407 558.101C316.33 558.143 316.253 558.186 316.17 558.227C314.983 558.828 313.645 559.146 312.302 559.146C310.182 559.146 308.158 558.381 306.581 556.973C306.493 556.894 306.406 556.811 306.272 556.681L305.973 556.369C305.88 556.267 305.789 556.162 305.703 556.058C305.617 555.954 305.537 555.848 305.464 555.751L305.235 555.426L304.376 553.781C303.077 550.412 304.115 546.628 306.958 544.363C308.46 543.167 310.351 542.509 312.285 542.509C314.863 542.509 317.268 543.635 318.882 545.598C320.297 547.317 320.947 549.478 320.715 551.683ZM342.929 532.227L325.467 546.139C324.94 544.693 324.173 543.351 323.175 542.139C320.506 538.893 316.536 537.031 312.281 537.031C309.092 537.031 305.969 538.119 303.489 540.094C299.503 543.27 297.6 548.418 298.532 553.368C298.515 553.381 298.499 553.393 298.482 553.406C293.294 557.54 291.821 564.755 294.87 570.516L294.399 570.89L281.823 555.593C280.901 554.469 279.086 554.278 277.941 555.188C277.362 555.649 277.001 556.307 276.923 557.04C276.847 557.769 277.063 558.484 277.53 559.052L290.087 574.326L287.151 576.665C286.402 577.262 285.495 577.578 284.528 577.578C283.258 577.578 282.074 577.023 281.28 576.058L252.22 540.711C251.526 539.867 251.207 538.808 251.321 537.727C251.436 536.639 251.974 535.662 252.837 534.974L308.613 490.537C308.768 490.413 308.933 490.388 309.045 490.388C309.255 490.388 309.45 490.478 309.578 490.636L318.68 501.705L311.159 507.696C308.341 509.942 306.581 513.139 306.207 516.701C305.833 520.247 306.878 523.721 309.15 526.485C311.731 529.626 315.572 531.426 319.688 531.426C322.774 531.426 325.794 530.373 328.192 528.463L335.736 522.452L343.028 531.32C343.137 531.454 343.188 531.621 343.171 531.791C343.152 531.962 343.066 532.118 342.929 532.227ZM277.224 549.995C277.137 549.834 277.036 549.682 276.922 549.545C276.804 549.4 276.673 549.271 276.537 549.161C276.399 549.05 276.251 548.95 276.091 548.863C275.931 548.778 275.764 548.708 275.582 548.653C275.417 548.605 275.242 548.569 275.062 548.549C274.881 548.531 274.68 548.53 274.529 548.547C274.348 548.562 274.169 548.597 273.997 548.647C273.823 548.698 273.655 548.765 273.499 548.845C273.172 549.013 272.887 549.241 272.655 549.517C272.537 549.657 272.435 549.806 272.354 549.955C272.265 550.111 272.192 550.28 272.14 550.444C272.084 550.612 272.045 550.793 272.023 550.99C272.004 551.169 272.004 551.351 272.022 551.528C272.039 551.707 272.073 551.885 272.124 552.05C272.175 552.224 272.245 552.392 272.329 552.55C272.417 552.716 272.519 552.87 272.628 552.999C272.74 553.139 272.87 553.269 273.023 553.393C273.159 553.5 273.306 553.6 273.463 553.684C273.62 553.768 273.789 553.839 273.947 553.887C274.122 553.943 274.303 553.98 274.481 553.998C274.578 554.009 274.674 554.014 274.771 554.014C274.856 554.014 274.943 554.01 275.022 554.002C275.206 553.986 275.387 553.952 275.55 553.903C275.724 553.854 275.893 553.786 276.054 553.703C276.216 553.619 276.372 553.518 276.513 553.406C276.651 553.296 276.782 553.17 276.903 553.025C277.015 552.89 277.118 552.744 277.206 552.586C277.291 552.43 277.362 552.264 277.418 552.088C277.472 551.914 277.51 551.737 277.527 551.56C277.546 551.383 277.548 551.204 277.531 551.028C277.515 550.851 277.481 550.673 277.428 550.493C277.376 550.319 277.308 550.154 277.224 549.995Z"
        fill="#6258FB" />
    <path
        d="M411.801 534.36C411.38 538.816 409.735 542.296 406.867 544.802C403.998 547.288 400.183 548.531 395.421 548.531C392.093 548.531 389.158 547.747 386.614 546.178C384.09 544.591 382.139 542.344 380.762 539.437C379.385 536.53 378.668 533.155 378.611 529.311V525.409C378.611 521.47 379.309 517.999 380.705 514.996C382.101 511.994 384.099 509.68 386.7 508.054C389.32 506.429 392.342 505.616 395.765 505.616C400.374 505.616 404.084 506.868 406.895 509.374C409.707 511.879 411.342 515.417 411.801 519.988H404.572C404.228 516.985 403.348 514.824 401.933 513.505C400.537 512.166 398.481 511.497 395.765 511.497C392.61 511.497 390.181 512.654 388.479 514.968C386.796 517.263 385.935 520.638 385.897 525.094V528.794C385.897 533.308 386.7 536.75 388.307 539.122C389.932 541.493 392.304 542.679 395.421 542.679C398.27 542.679 400.412 542.038 401.847 540.757C403.281 539.475 404.189 537.343 404.572 534.36H411.801ZM433.889 523.287C432.971 523.134 432.025 523.057 431.049 523.057C427.856 523.057 425.704 524.281 424.595 526.729V547.957H417.624V516.918H424.279L424.452 520.389C426.135 517.693 428.468 516.345 431.451 516.345C432.446 516.345 433.268 516.478 433.918 516.746L433.889 523.287ZM449.667 537.974L455.978 516.918H463.408L451.073 552.662C449.179 557.883 445.966 560.493 441.434 560.493C440.42 560.493 439.302 560.321 438.078 559.977V554.584L439.397 554.67C441.157 554.67 442.476 554.345 443.356 553.694C444.255 553.063 444.962 551.992 445.479 550.481L446.483 547.814L435.582 516.918H443.098L449.667 537.974ZM494.619 532.753C494.619 537.553 493.529 541.388 491.348 544.256C489.168 547.106 486.242 548.531 482.57 548.531C479.166 548.531 476.441 547.412 474.395 545.174V559.891H467.424V516.918H473.85L474.137 520.074C476.183 517.588 478.965 516.345 482.484 516.345C486.271 516.345 489.235 517.76 491.377 520.59C493.538 523.401 494.619 527.312 494.619 532.323V532.753ZM487.677 532.151C487.677 529.053 487.055 526.595 485.812 524.778C484.588 522.962 482.829 522.053 480.534 522.053C477.684 522.053 475.638 523.229 474.395 525.582V539.351C475.657 541.761 477.722 542.966 480.591 542.966C482.809 542.966 484.54 542.076 485.783 540.298C487.045 538.5 487.677 535.784 487.677 532.151ZM509.277 509.374V516.918H514.757V522.082H509.277V539.408C509.277 540.594 509.507 541.455 509.966 541.99C510.444 542.507 511.286 542.765 512.49 542.765C513.294 542.765 514.106 542.669 514.929 542.478V547.871C513.341 548.311 511.811 548.531 510.339 548.531C504.984 548.531 502.307 545.576 502.307 539.667V522.082H497.2V516.918H502.307V509.374H509.277ZM568.171 537.63L574.597 506.19H581.797L572.158 547.957H565.216L557.27 517.463L549.152 547.957H542.181L532.542 506.19H539.743L546.226 537.573L554.201 506.19H560.282L568.171 537.63ZM604 547.957C603.694 547.364 603.426 546.398 603.197 545.06C600.979 547.374 598.263 548.531 595.05 548.531C591.933 548.531 589.389 547.641 587.419 545.863C585.45 544.084 584.465 541.885 584.465 539.265C584.465 535.957 585.689 533.423 588.137 531.663C590.604 529.885 594.123 528.995 598.693 528.995H602.968V526.959C602.968 525.352 602.518 524.071 601.619 523.115C600.72 522.139 599.353 521.652 597.517 521.652C595.93 521.652 594.629 522.053 593.616 522.856C592.602 523.64 592.095 524.644 592.095 525.868H585.125C585.125 524.166 585.689 522.579 586.817 521.106C587.945 519.615 589.475 518.448 591.407 517.607C593.358 516.765 595.528 516.345 597.919 516.345C601.552 516.345 604.45 517.263 606.611 519.098C608.772 520.915 609.881 523.478 609.938 526.786V540.785C609.938 543.578 610.33 545.806 611.114 547.469V547.957H604ZM596.341 542.937C597.718 542.937 599.009 542.602 600.214 541.933C601.438 541.264 602.356 540.365 602.968 539.236V533.384H599.21C596.628 533.384 594.687 533.834 593.386 534.733C592.086 535.631 591.436 536.903 591.436 538.548C591.436 539.887 591.875 540.958 592.755 541.761C593.654 542.545 594.849 542.937 596.341 542.937ZM624.654 547.957H617.684V503.895H624.654V547.957ZM639.686 547.957H632.715V503.895H639.686V547.957ZM660.972 548.531C656.554 548.531 652.968 547.144 650.214 544.371C647.479 541.579 646.112 537.869 646.112 533.241V532.38C646.112 529.282 646.705 526.519 647.891 524.09C649.095 521.642 650.778 519.739 652.939 518.381C655.1 517.023 657.51 516.345 660.168 516.345C664.395 516.345 667.656 517.693 669.95 520.389C672.264 523.086 673.421 526.901 673.421 531.835V534.647H653.14C653.351 537.209 654.202 539.236 655.693 540.728C657.204 542.22 659.097 542.966 661.373 542.966C664.567 542.966 667.168 541.675 669.176 539.093L672.934 542.679C671.691 544.534 670.027 545.978 667.942 547.01C665.877 548.024 663.553 548.531 660.972 548.531ZM660.14 521.938C658.227 521.938 656.678 522.608 655.492 523.946C654.326 525.285 653.58 527.15 653.255 529.54H666.537V529.024C666.384 526.691 665.762 524.931 664.672 523.746C663.582 522.541 662.071 521.938 660.14 521.938ZM687.593 509.374V516.918H693.072V522.082H687.593V539.408C687.593 540.594 687.822 541.455 688.281 541.99C688.759 542.507 689.601 542.765 690.805 542.765C691.609 542.765 692.421 542.669 693.244 542.478V547.871C691.657 548.311 690.127 548.531 688.654 548.531C683.299 548.531 680.622 545.576 680.622 539.667V522.082H675.516V516.918H680.622V509.374H687.593Z"
        fill="#6258FB" />
</svg>
