<svg height="678.672" viewBox="0 0 648.94 678.672" width="648.94"
    xmlns="http://www.w3.org/2000/svg">
    <path
        d="M630.55,639.841a24.491,24.491,0,0,0-2.7-4.03,23.794,23.794,0,0,0-3.457-3.445,24.926,24.926,0,0,0-4.006-2.677,25.763,25.763,0,0,0-4.585-1.9,28,28,0,0,0-4.679-.931,25.358,25.358,0,0,0-9.642.894,26.933,26.933,0,0,0-4.453,1.769,24.657,24.657,0,0,0-7.583,6.047,24.207,24.207,0,0,0-2.708,3.948,24.125,24.125,0,0,0-2.947,9.258,25.858,25.858,0,0,0-.013,4.787,24.411,24.411,0,0,0,.926,4.755,25.762,25.762,0,0,0,1.839,4.465,24.459,24.459,0,0,0,6.178,7.494,26.278,26.278,0,0,0,4.025,2.677,24.8,24.8,0,0,0,4.333,1.8,25.124,25.124,0,0,0,7.45,1.14c.756,0,1.512-.038,2.286-.107a24.787,24.787,0,0,0,4.743-.9,25.443,25.443,0,0,0,4.484-1.782,24.618,24.618,0,0,0,4.1-2.658,25.542,25.542,0,0,0,3.533-3.432,26.186,26.186,0,0,0,2.733-3.987,25.719,25.719,0,0,0,1.871-4.4,22.741,22.741,0,0,0,.982-4.717,24.263,24.263,0,0,0,.038-4.874,24.662,24.662,0,0,0-.92-4.755A24.924,24.924,0,0,0,630.55,639.841Zm27.874-230.673a30.762,30.762,0,0,0-19.126,6.669,29.8,29.8,0,0,0-4.529,42.3,30.806,30.806,0,0,0,42.839,4.453,29.789,29.789,0,0,0,4.522-42.3A30.539,30.539,0,0,0,658.424,409.168Zm9.536,31a9.273,9.273,0,0,1-3.471,6.311,9.955,9.955,0,0,1-13.5-1.4,9.257,9.257,0,0,1,1.423-13.144,9.728,9.728,0,0,1,13.49,1.4A9.212,9.212,0,0,1,667.96,440.172Zm160.231,63.546-67.86-82.547L685.739,480.6a51.2,51.2,0,0,1-71.11-7.355,49.108,49.108,0,0,1,7.482-69.737l74.737-59.547-79.517-96.717a39.232,39.232,0,0,0-30.438-14.29,39.642,39.642,0,0,0-21.911,6.625L515.38,185.4a38.4,38.4,0,0,0-53.639-2.8L216.153,474.779c-12.879,15.084-15.02,33.4-6.1,47.4a59.793,59.793,0,0,0-8.421,84.354l183.2,222.826a61.8,61.8,0,0,0,85.942,8.937l48.771-38.858a89.417,89.417,0,0,0,111.788.655,86.837,86.837,0,0,0,31.256-83.687c.108-.082.2-.157.3-.239a86,86,0,0,0,32-56.423L822.384,558.157a38.344,38.344,0,0,0,5.807-54.439Zm-342.915-295.6a3.168,3.168,0,0,1,1.864-.585v-6.261l.17,6.267a3.12,3.12,0,0,1,2.2,1.033l48.148,52.587L244.387,494.819ZM609.458,773.168a54.113,54.113,0,0,1-75.165-7.784,51.684,51.684,0,0,1,.837-66.953l1.172,1.618c.812,1.09,1.643,2.167,2.5,3.212.894,1.09,1.814,2.154,2.677,3.093l.793.856,4.547-4.358-4.106,4.824,7.633,7.186q.973.822,1.965,1.606l1.165.895c.687.522,1.386,1.039,2.059,1.524l1.178.818c.75.523,1.493,1.033,2.192,1.474l1.026.649,3.578-5.19-2.784,5.681,1.644,1.007c1.127.655,2.261,1.285,3.653,2.01,1.165.617,2.355,1.2,3.866,1.9.788.365,1.581.711,2.513,1.1l1.209.523a89.3,89.3,0,0,0,53.671,4.389l.775-.17c.39-.1.781-.189,1.171-.29A52.578,52.578,0,0,1,609.458,773.168Zm51.013-119.276a51.842,51.842,0,0,1-19.46,35.356,54.08,54.08,0,0,1-7.7,5.1c-.485.264-.97.535-1.493.793a54.279,54.279,0,0,1-60.447-7.9c-.561-.5-1.109-1.021-1.953-1.839l-1.883-1.972c-.585-.642-1.158-1.3-1.7-1.958s-1.046-1.323-1.505-1.934l-1.449-2.047-5.416-10.372a51.818,51.818,0,0,1,16.28-59.371,54.121,54.121,0,0,1,75.172,7.785A51.438,51.438,0,0,1,660.471,653.892ZM800.512,531.24l-110.081,87.7a85.689,85.689,0,0,0-14.448-25.216,89.291,89.291,0,0,0-124.1-12.892,86.885,86.885,0,0,0-31.251,83.68c-.107.082-.208.164-.315.246a86.459,86.459,0,0,0-22.773,107.858l-2.966,2.362-79.285-96.434c-5.813-7.085-17.249-8.294-24.467-2.557a17.156,17.156,0,0,0-2.6,24.36l79.159,96.289-18.5,14.744a26.657,26.657,0,0,1-37.013-3.823l-183.2-222.833a25.458,25.458,0,0,1,3.892-36.163L584.185,268.422a4.406,4.406,0,0,1,6.084.623l57.373,69.781L600.232,376.6A83.433,83.433,0,0,0,587.567,495.04a86.355,86.355,0,0,0,120.044,12.469l47.556-37.894,45.968,55.907a4.007,4.007,0,0,1-.623,5.718ZM386.3,643.249a17.232,17.232,0,0,0-1.9-2.834,16.925,16.925,0,0,0-2.431-2.425,18.8,18.8,0,0,0-2.809-1.877,17.773,17.773,0,0,0-3.211-1.323,19.507,19.507,0,0,0-3.276-.655,17.9,17.9,0,0,0-6.713.618A18.031,18.031,0,0,0,362.819,636a17.221,17.221,0,0,0-5.322,4.238A16.683,16.683,0,0,0,355.6,643a16.031,16.031,0,0,0-1.348,3.085,16.54,16.54,0,0,0-.743,6.834,16.543,16.543,0,0,0,.642,3.288,16.924,16.924,0,0,0,1.291,3.155,16.124,16.124,0,0,0,1.884,2.827,16.571,16.571,0,0,0,2.494,2.488,18.971,18.971,0,0,0,2.771,1.833,17.259,17.259,0,0,0,3.054,1.278,16.511,16.511,0,0,0,3.363.7,16.219,16.219,0,0,0,1.827.1c.541,0,1.089-.025,1.586-.075a16.721,16.721,0,0,0,3.326-.624,17.057,17.057,0,0,0,3.18-1.26,18,18,0,0,0,2.891-1.87,17.757,17.757,0,0,0,2.463-2.406,18.193,18.193,0,0,0,1.908-2.765,17.958,17.958,0,0,0,1.335-3.142,17.283,17.283,0,0,0,.712-6.682,17.473,17.473,0,0,0-.649-3.37A17.269,17.269,0,0,0,386.3,643.249Z"
        fill="#fff" id="ic_main_logo" transform="translate(-188 -173)" />
</svg>
