<svg fill="none" height="1024" viewBox="0 0 1024 1024" width="1024"
    xmlns="http://www.w3.org/2000/svg">
    <rect fill="#6258FB" height="1024" rx="170" width="1024" />
    <path
        d="M630.55 639.841C629.782 638.406 628.868 637.045 627.848 635.811C626.803 634.532 625.631 633.367 624.391 632.366C623.125 631.333 621.777 630.432 620.385 629.689C618.962 628.933 617.463 628.303 615.8 627.793C614.301 627.365 612.714 627.032 611.121 626.862C609.496 626.698 607.695 626.691 606.284 626.842C604.722 626.975 603.129 627.277 601.479 627.756C599.948 628.209 598.468 628.801 597.026 629.525C594.104 631.031 591.553 633.071 589.443 635.572C588.411 636.8 587.491 638.135 586.735 639.52C585.954 640.925 585.299 642.417 584.815 643.923C584.33 645.415 583.989 647.015 583.788 648.778C583.637 650.359 583.63 651.978 583.775 653.565C583.926 655.19 584.241 656.789 584.701 658.32C585.148 659.793 585.753 661.28 586.54 662.785C587.308 664.227 588.215 665.575 589.242 666.828C590.262 668.069 591.421 669.221 592.718 670.279C593.94 671.268 595.269 672.156 596.743 672.956C598.198 673.724 599.696 674.341 601.076 674.757C602.619 675.248 604.256 675.595 605.919 675.758C606.788 675.853 607.651 675.897 608.526 675.897C609.282 675.897 610.038 675.859 610.812 675.79C612.443 675.639 614.049 675.336 615.555 674.889C617.035 674.467 618.546 673.863 620.039 673.107C621.462 672.383 622.835 671.482 624.139 670.449C625.398 669.442 626.576 668.308 627.672 667.017C628.692 665.789 629.599 664.473 630.405 663.03C631.167 661.613 631.797 660.139 632.276 658.628C632.798 656.959 633.126 655.378 633.258 653.911C633.434 652.305 633.447 650.668 633.296 649.037C633.151 647.443 632.842 645.862 632.376 644.282C631.935 642.802 631.325 641.321 630.55 639.841ZM658.424 409.168C651.478 409.168 644.689 411.536 639.298 415.837C632.949 420.894 628.988 428.093 628.144 436.116C627.3 444.102 629.656 451.924 634.769 458.14C640.582 465.206 649.217 469.262 658.481 469.262C665.421 469.262 672.217 466.894 677.608 462.593C683.956 457.542 687.911 450.344 688.761 442.32C689.605 434.334 687.25 426.512 682.13 420.29C676.323 413.223 667.682 409.168 658.424 409.168ZM667.96 440.172C667.695 442.666 666.467 444.902 664.489 446.483C660.509 449.65 654.211 448.996 650.993 445.085C649.406 443.151 648.675 440.726 648.94 438.251C649.204 435.757 650.432 433.522 652.416 431.941C654.129 430.574 656.22 429.85 658.437 429.85C661.359 429.85 664.08 431.122 665.906 433.339C667.487 435.273 668.218 437.697 667.96 440.172ZM828.191 503.718L760.331 421.171L685.739 480.598C676.789 487.734 665.503 491.658 653.972 491.658C638.592 491.658 624.252 484.95 614.629 473.243C606.196 462.99 602.323 450.098 603.708 436.948C605.1 423.728 611.637 411.857 622.111 403.506L696.848 343.959L617.331 247.242C609.868 238.167 598.777 232.952 586.893 232.952C579.083 232.952 571.419 235.289 564.982 239.577L515.38 185.396C508.597 177.959 499.27 173.581 489.143 173.059C478.991 172.498 469.235 175.968 461.741 182.6L216.153 474.779C203.274 489.863 201.133 508.184 210.051 522.178C197.707 532.286 189.998 546.513 188.336 562.327C186.648 578.349 191.365 594.043 201.63 606.532L384.83 829.358C396.488 843.535 413.82 851.672 432.392 851.672C446.317 851.672 459.946 846.917 470.772 838.295L519.543 799.437C535.332 812.341 555.151 819.389 575.934 819.389C596.031 819.389 615.706 812.537 631.331 800.092C656.485 780.046 668.482 747.586 662.587 716.405C662.695 716.323 662.789 716.248 662.89 716.166C680.669 702.002 691.961 682.044 694.889 659.743L822.384 558.157C830.546 551.658 835.635 542.394 836.725 532.078C837.808 521.793 834.772 511.717 828.191 503.718ZM485.276 208.119C485.811 207.735 486.454 207.534 487.14 207.534V201.273L487.31 207.54C488.179 207.584 488.935 207.937 489.514 208.573L537.662 261.16L244.387 494.819L485.276 208.119ZM609.458 773.168C599.999 780.707 588.07 784.857 575.884 784.857C559.629 784.857 544.464 777.76 534.293 765.384C517.924 745.477 518.686 717.356 535.13 698.431L536.302 700.049C537.114 701.139 537.945 702.216 538.802 703.261C539.696 704.351 540.616 705.415 541.479 706.354L542.272 707.21L546.819 702.852L542.713 707.676L550.346 714.862C550.995 715.41 551.65 715.945 552.311 716.468L553.476 717.363C554.163 717.885 554.862 718.402 555.535 718.887L556.713 719.705C557.463 720.228 558.206 720.738 558.905 721.179L559.931 721.828L563.509 716.638L560.725 722.319L562.369 723.326C563.496 723.981 564.63 724.611 566.022 725.336C567.187 725.953 568.377 726.532 569.888 727.238C570.676 727.603 571.469 727.949 572.401 728.34L573.61 728.863C579.423 731.231 585.457 732.988 591.56 734.083C603.324 736.199 615.636 735.903 627.281 733.252L628.056 733.082C628.446 732.981 628.837 732.893 629.227 732.792C629.057 748.304 621.853 763.293 609.458 773.168ZM660.471 653.892C658.998 667.874 652.089 680.425 641.011 689.248C638.655 691.125 636.073 692.838 633.315 694.35C632.83 694.614 632.345 694.885 631.822 695.143C624.34 698.935 615.907 700.937 607.437 700.937C594.072 700.937 581.313 696.113 571.375 687.24C570.814 686.742 570.266 686.219 569.422 685.401L567.539 683.429C566.954 682.787 566.381 682.126 565.839 681.471C565.297 680.816 564.793 680.148 564.334 679.537L562.885 677.49L557.469 667.118C549.282 645.881 555.825 622.025 573.749 607.747C583.215 600.209 595.137 596.058 607.329 596.058C623.584 596.058 638.743 603.156 648.921 615.532C657.839 626.37 661.939 639.993 660.471 653.892ZM800.512 531.24L690.431 618.938C687.112 609.825 682.275 601.367 675.983 593.722C659.155 573.26 634.127 561.527 607.304 561.527C587.201 561.527 567.514 568.385 551.883 580.83C526.754 600.857 514.756 633.31 520.632 664.51C520.525 664.592 520.424 664.674 520.317 664.756C487.612 690.817 478.323 736.3 497.544 772.614L494.578 774.976L415.293 678.542C409.48 671.457 398.044 670.248 390.826 675.985C387.173 678.895 384.9 683.039 384.409 687.662C383.93 692.259 385.29 696.762 388.231 700.345L467.39 796.634L448.887 811.378C444.163 815.144 438.445 817.134 432.348 817.134C424.344 817.134 416.881 813.639 411.874 807.555L228.674 584.722C224.303 579.4 222.288 572.724 223.012 565.91C223.736 559.052 227.124 552.892 232.566 548.559L584.185 268.422C585.161 267.641 586.2 267.483 586.905 267.483C588.228 267.483 589.456 268.05 590.269 269.045L647.642 338.826L600.232 376.595C582.465 390.752 571.375 410.906 569.013 433.364C566.658 455.715 573.245 477.62 587.567 495.04C603.84 514.84 628.05 526.189 653.997 526.189C673.451 526.189 692.49 519.551 707.611 507.509L755.167 469.615L801.135 525.522C801.822 526.366 802.143 527.417 802.036 528.488C801.916 529.571 801.375 530.554 800.512 531.24ZM386.304 643.249C385.756 642.235 385.12 641.277 384.402 640.415C383.653 639.501 382.828 638.683 381.971 637.99C381.102 637.291 380.17 636.661 379.162 636.113C378.155 635.578 377.097 635.137 375.951 634.79C374.911 634.488 373.809 634.261 372.675 634.135C371.536 634.022 370.263 634.016 369.312 634.123C368.172 634.217 367.045 634.438 365.962 634.753C364.866 635.074 363.802 635.496 362.819 636C360.76 637.058 358.965 638.494 357.497 640.238C356.754 641.12 356.112 642.058 355.602 642.997C355.041 643.979 354.582 645.043 354.254 646.082C353.901 647.141 353.656 648.281 353.517 649.521C353.398 650.649 353.398 651.801 353.511 652.916C353.618 654.043 353.832 655.164 354.153 656.204C354.475 657.299 354.915 658.364 355.444 659.359C355.999 660.404 356.641 661.374 357.328 662.186C358.033 663.068 358.858 663.887 359.822 664.674C360.678 665.348 361.604 665.978 362.593 666.507C363.581 667.036 364.652 667.483 365.647 667.785C366.749 668.138 367.889 668.371 369.01 668.484C369.621 668.553 370.226 668.585 370.837 668.585C371.378 668.585 371.926 668.56 372.423 668.51C373.582 668.409 374.722 668.195 375.749 667.886C376.845 667.577 377.915 667.149 378.929 666.626C379.95 666.097 380.932 665.461 381.82 664.756C382.689 664.057 383.514 663.263 384.283 662.35C384.988 661.5 385.637 660.581 386.191 659.585C386.726 658.603 387.173 657.551 387.526 656.443C387.866 655.347 388.105 654.232 388.212 653.117C388.332 652.003 388.345 650.869 388.238 649.761C388.137 648.646 387.923 647.525 387.589 646.391C387.262 645.295 386.833 644.25 386.304 643.249Z"
        fill="white" />
</svg>
