<svg fill="none" height="20" viewBox="0 0 20 20" width="20" xmlns="http://www.w3.org/2000/svg">
    <g clip-path="url(#clip0)">
        <path
            d="M16.9978 5.05304C16.7323 4.78761 16.3156 4.74847 16.0053 4.95992C14.8363 5.75671 8.97288 9.76339 8.34272 10.3935C7.42889 11.3074 7.42889 12.7943 8.34272 13.7081C8.79963 14.165 9.39987 14.3935 10 14.3935C10.6002 14.3935 11.2004 14.165 11.6573 13.7081C12.2874 13.078 16.2941 7.21453 17.0909 6.04554C17.3023 5.73527 17.2632 5.31855 16.9978 5.05304ZM10.5524 12.6032C10.2478 12.9079 9.75217 12.9079 9.4476 12.6032C9.14299 12.2987 9.14295 11.8032 9.44745 11.4985C9.69229 11.2566 11.357 10.0693 13.4052 8.64562C11.9815 10.6938 10.7943 12.3585 10.5524 12.6032Z"
            fill="#6258FB" />
        <path
            d="M3.60277 15.6845L2.63832 16.155C1.93262 14.8955 1.5625 13.4898 1.5625 12.0508C1.5625 10.9964 1.75691 9.98664 2.11172 9.05535L3.21684 9.58543C3.32582 9.63769 3.44086 9.66246 3.55418 9.66246C3.84531 9.66246 4.1248 9.49898 4.25914 9.21891C4.4457 8.82988 4.28164 8.3632 3.89258 8.1766L2.80148 7.65324C4.15762 5.44152 6.50398 3.89953 9.21879 3.64914V4.82418C9.21879 5.25566 9.56855 5.60543 10 5.60543C10.4315 5.60543 10.7813 5.25566 10.7813 4.82418V3.64855C11.7121 3.73328 12.6127 3.97031 13.4677 4.35625C13.8608 4.53379 14.3236 4.35883 14.5011 3.96566C14.6787 3.57238 14.5038 3.10969 14.1105 2.93215C12.815 2.34734 11.432 2.05078 10 2.05078C7.32891 2.05078 4.8177 3.09094 2.92891 4.97969C1.0402 6.86848 0 9.37969 0 12.0508C0 14.0246 0.585859 15.9443 1.69426 17.6021C1.84355 17.8254 2.09039 17.9493 2.34422 17.9493C2.45961 17.9493 2.57648 17.9237 2.68629 17.8701L4.28785 17.0889C4.67566 16.8997 4.83668 16.432 4.6475 16.0442C4.45832 15.6564 3.99059 15.4954 3.60277 15.6845Z"
            fill="#6258FB" />
        <path
            d="M19.1186 7.94051C18.9411 7.54727 18.4785 7.37227 18.0851 7.54989C17.6918 7.72743 17.517 8.19012 17.6945 8.58336C18.1875 9.67547 18.4375 10.8422 18.4375 12.051C18.4375 13.4922 18.0662 14.9002 17.3584 16.1611L16.3515 15.6816C15.962 15.4961 15.4958 15.6615 15.3102 16.0511C15.1247 16.4406 15.2902 16.9068 15.6797 17.0923L17.3204 17.8736C17.4283 17.9249 17.5427 17.9495 17.6558 17.9495C17.9097 17.9495 18.1566 17.8255 18.3057 17.6024C19.4141 15.9445 20 14.0248 20 12.051C20 10.619 19.7034 9.23602 19.1186 7.94051Z"
            fill="#6258FB" />
    </g>
    <defs>
        <clipPath id="clip0">
            <rect fill="white" height="20" width="20" />
        </clipPath>
    </defs>
</svg>
