<svg fill="none" height="22" viewBox="0 0 22 22" width="22" xmlns="http://www.w3.org/2000/svg">
    <mask fill="white" id="path-1-inside-1">
        <path
            d="M20.8674 8.55556H18.8092C18.4784 8.55556 18.2058 8.37344 18.0791 8.06789C17.9524 7.76233 18.0168 7.44048 18.2502 7.20663L19.7055 5.75178C19.9194 5.53789 20.0371 5.25311 20.0371 4.95081C20.0371 4.64811 19.9194 4.36374 19.7055 4.14944L17.8506 2.29452C17.4228 1.86674 16.6768 1.86593 16.2482 2.29452L14.7934 3.74937C14.5595 3.98281 14.2369 4.048 13.9321 3.92089C13.6266 3.79418 13.4444 3.52163 13.4444 3.19081V1.13259C13.4444 0.508037 12.9364 0 12.3119 0H9.68815C9.06359 0 8.55556 0.508037 8.55556 1.13259V3.19081C8.55556 3.52163 8.37344 3.79418 8.06789 3.92089C7.76315 4.04841 7.44048 3.98281 7.20663 3.74937L5.75178 2.29452C5.32318 1.86593 4.57722 1.86674 4.14944 2.29452L2.29452 4.14944C2.08063 4.36333 1.96289 4.64811 1.96289 4.95081C1.96289 5.25311 2.08063 5.53748 2.29452 5.75178L3.74978 7.20663C3.98322 7.44048 4.04718 7.76233 3.92089 8.06789C3.79459 8.37344 3.52163 8.55556 3.19081 8.55556H1.13259C0.508037 8.55556 0 9.06359 0 9.68815V12.3114C0 12.9364 0.508037 13.4444 1.13259 13.4444H3.19081C3.52163 13.4444 3.79418 13.6266 3.92089 13.9321C4.04759 14.2377 3.98322 14.5595 3.74978 14.7934L2.29452 16.2482C2.08063 16.4621 1.96289 16.7469 1.96289 17.0492C1.96289 17.3519 2.08063 17.6363 2.29452 17.8506L4.14944 19.7055C4.57763 20.1337 5.32318 20.1345 5.75178 19.7055L7.20663 18.2502C7.44048 18.0168 7.76193 17.9524 8.06789 18.0791C8.37344 18.2058 8.55556 18.4784 8.55556 18.8092V20.8674C8.55556 21.492 9.06359 22 9.68815 22H12.3114C12.936 22 13.444 21.492 13.444 20.8674V18.8092C13.444 18.4784 13.6261 18.2058 13.9317 18.0791C14.2377 17.952 14.5591 18.0168 14.793 18.2502L16.2478 19.7055C16.6764 20.1341 17.4224 20.1333 17.8501 19.7055L19.7051 17.8506C19.919 17.6367 20.0367 17.3519 20.0367 17.0492C20.0367 16.7469 19.919 16.4625 19.7051 16.2482L18.2498 14.7934C18.0164 14.5595 17.9524 14.2377 18.0787 13.9321C18.205 13.6266 18.4784 13.4444 18.8092 13.4444H20.8674C21.492 13.4444 22 12.9364 22 12.3119V9.68815C22 9.06359 21.492 8.55556 20.8674 8.55556ZM21.1852 12.3119C21.1852 12.487 21.0426 12.6296 20.8674 12.6296H18.8092C18.1476 12.6296 17.5792 13.0093 17.3262 13.6204C17.0728 14.2316 17.206 14.9021 17.6741 15.3699L19.1294 16.8247C19.2537 16.949 19.2537 17.1506 19.1294 17.2745L17.2745 19.1294C17.1506 19.2533 16.949 19.2541 16.8247 19.1294L15.3699 17.6741C14.9017 17.206 14.2316 17.0736 13.6204 17.3262C13.0093 17.5792 12.6296 18.1476 12.6296 18.8092V20.8674C12.6296 21.0426 12.487 21.1852 12.3119 21.1852H9.68815C9.51296 21.1852 9.37037 21.0426 9.37037 20.8674V18.8092C9.37037 18.1476 8.99067 17.5792 8.37956 17.3262C8.17463 17.2411 7.96359 17.1995 7.755 17.1995C7.34189 17.1995 6.94141 17.3625 6.63015 17.6737L5.1753 19.129C5.05063 19.2537 4.84896 19.2529 4.72552 19.129L2.87059 17.2741C2.74633 17.1498 2.74633 16.9481 2.87059 16.8243L4.32585 15.3694C4.79356 14.9017 4.92719 14.2311 4.67378 13.62C4.42078 13.0093 3.85244 12.6296 3.19081 12.6296H1.13259C0.957407 12.6296 0.814815 12.487 0.814815 12.3119V9.68815C0.814815 9.51296 0.957407 9.37037 1.13259 9.37037H3.19081C3.85244 9.37037 4.42078 8.99067 4.67378 8.37956C4.92719 7.76844 4.79396 7.09785 4.32585 6.63015L2.87059 5.1753C2.74633 5.05104 2.74633 4.84937 2.87059 4.72552L4.72552 2.87059C4.84937 2.74633 5.05104 2.74633 5.1753 2.87059L6.63015 4.32544C7.09744 4.79274 7.76763 4.92678 8.37956 4.67337C8.99067 4.42078 9.37037 3.85244 9.37037 3.19081V1.13259C9.37037 0.957407 9.51296 0.814815 9.68815 0.814815H12.3114C12.487 0.814815 12.6296 0.957407 12.6296 1.13259V3.19081C12.6296 3.85244 13.0093 4.42078 13.6204 4.67378C14.2324 4.92719 14.9021 4.79356 15.3699 4.32585L16.8247 2.871C16.9494 2.74674 17.151 2.74674 17.2745 2.871L19.1294 4.72593C19.2537 4.85019 19.2537 5.05185 19.1294 5.1757L17.6741 6.63056C17.2064 7.09826 17.0728 7.76885 17.3262 8.37996C17.5792 8.99107 18.1476 9.37078 18.8092 9.37078H20.8674C21.0426 9.37037 21.1852 9.51296 21.1852 9.68815V12.3119Z" />
    </mask>
    <path
        d="M20.8674 8.55556H18.8092C18.4784 8.55556 18.2058 8.37344 18.0791 8.06789C17.9524 7.76233 18.0168 7.44048 18.2502 7.20663L19.7055 5.75178C19.9194 5.53789 20.0371 5.25311 20.0371 4.95081C20.0371 4.64811 19.9194 4.36374 19.7055 4.14944L17.8506 2.29452C17.4228 1.86674 16.6768 1.86593 16.2482 2.29452L14.7934 3.74937C14.5595 3.98281 14.2369 4.048 13.9321 3.92089C13.6266 3.79418 13.4444 3.52163 13.4444 3.19081V1.13259C13.4444 0.508037 12.9364 0 12.3119 0H9.68815C9.06359 0 8.55556 0.508037 8.55556 1.13259V3.19081C8.55556 3.52163 8.37344 3.79418 8.06789 3.92089C7.76315 4.04841 7.44048 3.98281 7.20663 3.74937L5.75178 2.29452C5.32318 1.86593 4.57722 1.86674 4.14944 2.29452L2.29452 4.14944C2.08063 4.36333 1.96289 4.64811 1.96289 4.95081C1.96289 5.25311 2.08063 5.53748 2.29452 5.75178L3.74978 7.20663C3.98322 7.44048 4.04718 7.76233 3.92089 8.06789C3.79459 8.37344 3.52163 8.55556 3.19081 8.55556H1.13259C0.508037 8.55556 0 9.06359 0 9.68815V12.3114C0 12.9364 0.508037 13.4444 1.13259 13.4444H3.19081C3.52163 13.4444 3.79418 13.6266 3.92089 13.9321C4.04759 14.2377 3.98322 14.5595 3.74978 14.7934L2.29452 16.2482C2.08063 16.4621 1.96289 16.7469 1.96289 17.0492C1.96289 17.3519 2.08063 17.6363 2.29452 17.8506L4.14944 19.7055C4.57763 20.1337 5.32318 20.1345 5.75178 19.7055L7.20663 18.2502C7.44048 18.0168 7.76193 17.9524 8.06789 18.0791C8.37344 18.2058 8.55556 18.4784 8.55556 18.8092V20.8674C8.55556 21.492 9.06359 22 9.68815 22H12.3114C12.936 22 13.444 21.492 13.444 20.8674V18.8092C13.444 18.4784 13.6261 18.2058 13.9317 18.0791C14.2377 17.952 14.5591 18.0168 14.793 18.2502L16.2478 19.7055C16.6764 20.1341 17.4224 20.1333 17.8501 19.7055L19.7051 17.8506C19.919 17.6367 20.0367 17.3519 20.0367 17.0492C20.0367 16.7469 19.919 16.4625 19.7051 16.2482L18.2498 14.7934C18.0164 14.5595 17.9524 14.2377 18.0787 13.9321C18.205 13.6266 18.4784 13.4444 18.8092 13.4444H20.8674C21.492 13.4444 22 12.9364 22 12.3119V9.68815C22 9.06359 21.492 8.55556 20.8674 8.55556ZM21.1852 12.3119C21.1852 12.487 21.0426 12.6296 20.8674 12.6296H18.8092C18.1476 12.6296 17.5792 13.0093 17.3262 13.6204C17.0728 14.2316 17.206 14.9021 17.6741 15.3699L19.1294 16.8247C19.2537 16.949 19.2537 17.1506 19.1294 17.2745L17.2745 19.1294C17.1506 19.2533 16.949 19.2541 16.8247 19.1294L15.3699 17.6741C14.9017 17.206 14.2316 17.0736 13.6204 17.3262C13.0093 17.5792 12.6296 18.1476 12.6296 18.8092V20.8674C12.6296 21.0426 12.487 21.1852 12.3119 21.1852H9.68815C9.51296 21.1852 9.37037 21.0426 9.37037 20.8674V18.8092C9.37037 18.1476 8.99067 17.5792 8.37956 17.3262C8.17463 17.2411 7.96359 17.1995 7.755 17.1995C7.34189 17.1995 6.94141 17.3625 6.63015 17.6737L5.1753 19.129C5.05063 19.2537 4.84896 19.2529 4.72552 19.129L2.87059 17.2741C2.74633 17.1498 2.74633 16.9481 2.87059 16.8243L4.32585 15.3694C4.79356 14.9017 4.92719 14.2311 4.67378 13.62C4.42078 13.0093 3.85244 12.6296 3.19081 12.6296H1.13259C0.957407 12.6296 0.814815 12.487 0.814815 12.3119V9.68815C0.814815 9.51296 0.957407 9.37037 1.13259 9.37037H3.19081C3.85244 9.37037 4.42078 8.99067 4.67378 8.37956C4.92719 7.76844 4.79396 7.09785 4.32585 6.63015L2.87059 5.1753C2.74633 5.05104 2.74633 4.84937 2.87059 4.72552L4.72552 2.87059C4.84937 2.74633 5.05104 2.74633 5.1753 2.87059L6.63015 4.32544C7.09744 4.79274 7.76763 4.92678 8.37956 4.67337C8.99067 4.42078 9.37037 3.85244 9.37037 3.19081V1.13259C9.37037 0.957407 9.51296 0.814815 9.68815 0.814815H12.3114C12.487 0.814815 12.6296 0.957407 12.6296 1.13259V3.19081C12.6296 3.85244 13.0093 4.42078 13.6204 4.67378C14.2324 4.92719 14.9021 4.79356 15.3699 4.32585L16.8247 2.871C16.9494 2.74674 17.151 2.74674 17.2745 2.871L19.1294 4.72593C19.2537 4.85019 19.2537 5.05185 19.1294 5.1757L17.6741 6.63056C17.2064 7.09826 17.0728 7.76885 17.3262 8.37996C17.5792 8.99107 18.1476 9.37078 18.8092 9.37078H20.8674C21.0426 9.37037 21.1852 9.51296 21.1852 9.68815V12.3119Z"
        fill="white" mask="url(#path-1-inside-1)" stroke="white" stroke-width="2.7" />
    <mask fill="white" id="path-2-inside-2">
        <path
            d="M11 7.33398C8.97802 7.33398 7.33331 8.97869 7.33331 11.0007C7.33331 13.0226 8.97802 14.6673 11 14.6673C13.0219 14.6673 14.6666 13.0226 14.6666 11.0007C14.6666 8.97869 13.0219 7.33398 11 7.33398ZM11 13.8525C9.42779 13.8525 8.14813 12.5728 8.14813 11.0007C8.14813 9.42847 9.42779 8.1488 11 8.1488C12.5722 8.1488 13.8518 9.42847 13.8518 11.0007C13.8518 12.5728 12.5722 13.8525 11 13.8525Z" />
    </mask>
    <path
        d="M11 7.33398C8.97802 7.33398 7.33331 8.97869 7.33331 11.0007C7.33331 13.0226 8.97802 14.6673 11 14.6673C13.0219 14.6673 14.6666 13.0226 14.6666 11.0007C14.6666 8.97869 13.0219 7.33398 11 7.33398ZM11 13.8525C9.42779 13.8525 8.14813 12.5728 8.14813 11.0007C8.14813 9.42847 9.42779 8.1488 11 8.1488C12.5722 8.1488 13.8518 9.42847 13.8518 11.0007C13.8518 12.5728 12.5722 13.8525 11 13.8525Z"
        fill="white" />
    <path
        d="M11 5.98398C8.23243 5.98398 5.98331 8.2331 5.98331 11.0007H8.68331C8.68331 9.72427 9.7236 8.68398 11 8.68398V5.98398ZM5.98331 11.0007C5.98331 13.7682 8.23243 16.0173 11 16.0173V13.3173C9.7236 13.3173 8.68331 12.277 8.68331 11.0007H5.98331ZM11 16.0173C13.7675 16.0173 16.0166 13.7682 16.0166 11.0007H13.3166C13.3166 12.277 12.2764 13.3173 11 13.3173V16.0173ZM16.0166 11.0007C16.0166 8.2331 13.7675 5.98398 11 5.98398V8.68398C12.2764 8.68398 13.3166 9.72427 13.3166 11.0007H16.0166ZM11 12.5025C10.1734 12.5025 9.49813 11.8273 9.49813 11.0007H6.79813C6.79813 13.3184 8.68221 15.2025 11 15.2025V12.5025ZM9.49813 11.0007C9.49813 10.1741 10.1734 9.4988 11 9.4988V6.7988C8.68221 6.7988 6.79813 8.68288 6.79813 11.0007H9.49813ZM11 9.4988C11.8266 9.4988 12.5018 10.1741 12.5018 11.0007H15.2018C15.2018 8.68288 13.3177 6.7988 11 6.7988V9.4988ZM12.5018 11.0007C12.5018 11.8273 11.8266 12.5025 11 12.5025V15.2025C13.3177 15.2025 15.2018 13.3184 15.2018 11.0007H12.5018Z"
        fill="white" mask="url(#path-2-inside-2)" />
</svg>
