<svg fill="none" height="20" viewBox="0 0 20 20" width="20" xmlns="http://www.w3.org/2000/svg">
    <g clip-path="url(#clip0)">
        <path
            d="M2.97619 1.7457H2.97619C1.25427 1.74577 -0.1 3.10005 -0.1 4.82196V15.1792C-0.1 16.9011 1.25427 18.2553 2.97619 18.2553H16.0714C17.7933 18.2553 19.1476 16.9011 19.1476 15.1792V12.7536C19.7084 12.3637 20.1 11.7166 20.1 11.0125V9.10773C20.1 8.40242 19.7084 7.75635 19.1476 7.36653V4.8219C19.1476 3.09998 17.7933 1.7457 16.0714 1.7457H2.97619ZM18.7095 11.0124C18.7095 11.4334 18.3972 11.7458 17.9762 11.7458H11.9048C11.4838 11.7458 11.1714 11.4334 11.1714 11.0124V9.10766C11.1714 8.68672 11.4838 8.37431 11.9048 8.37431H17.9762C18.3971 8.37431 18.7095 8.68667 18.7095 9.10766V11.0124ZM16.0714 16.8648H2.97619C2.07904 16.8648 1.29046 16.0762 1.29046 15.1791V4.82196C1.29046 3.92481 2.07904 3.13623 2.97619 3.13623H16.0714C16.9686 3.13623 17.7572 3.92481 17.7572 4.82196V6.98385H11.9048C10.7781 6.98385 9.78096 7.98101 9.78096 9.10766V11.0124C9.78096 12.1391 10.7781 13.1362 11.9048 13.1362H17.7572V15.1791C17.7572 16.0762 16.9686 16.8648 16.0714 16.8648Z"
            fill="#666666" stroke="#666666" stroke-width="0.2" />
        <path
            d="M12.0238 9.58286C11.9048 9.7019 11.9048 9.93997 11.9048 10.059C11.9048 10.1781 11.9048 10.2971 12.0238 10.4161C12.1429 10.5352 12.3809 10.6542 12.5 10.6542C12.619 10.6542 12.7381 10.5352 12.8571 10.4161C12.9761 10.4161 13.0952 10.1781 13.0952 10.059C13.0952 9.82094 12.9761 9.7019 12.8571 9.58286C12.6191 9.34478 12.2619 9.34478 12.0238 9.58286Z"
            fill="#666666" />
    </g>
    <defs>
        <clipPath id="clip0">
            <rect fill="white" height="20" width="20" />
        </clipPath>
    </defs>
</svg>
