<svg fill="none" height="20" viewBox="0 0 20 20" width="20" xmlns="http://www.w3.org/2000/svg">
    <g clip-path="url(#clip0)">
        <path
            d="M10.0076 3.61921e-06C4.48441 -0.00464482 0.00452999 4.46907 -0.000118451 9.99227C-0.00476689 15.5155 4.46894 19.9954 9.99215 20C15.5146 19.9954 19.9914 15.5225 19.9999 10C19.9999 4.47989 15.5277 0.00465206 10.0076 3.61921e-06ZM9.99215 18.3359C5.38844 18.3359 1.65625 14.6037 1.65625 10C1.65625 5.39629 5.38844 1.66411 9.99215 1.66411C14.5943 1.66875 18.3234 5.39785 18.328 10C18.328 14.6037 14.5959 18.3359 9.99215 18.3359Z"
            fill="#666666" />
        <path
            d="M12.6935 9.51234C13.3623 9.13539 13.7237 8.38078 13.5991 7.62379C13.4443 6.45508 12.0512 6.01387 10.9521 5.92102V4.16406H9.86846V5.90555H9.14092V4.16406H8.05733V5.90555H5.87463V7.02785H6.68733C7.05112 7.02785 7.22913 7.13621 7.22913 7.43031V12.2523C7.22913 12.6548 7.02788 12.7786 6.81116 12.7786H5.98299V13.9241H8.08827V15.7043H9.17959V13.9241H9.90713V15.7043H10.9675V13.9241H11.1997C13.4288 13.9241 14.1719 12.8328 14.1719 11.3468C14.154 10.4705 13.5465 9.71668 12.6935 9.51234ZM9.14088 7.0975H9.91487C10.4567 7.0975 11.5248 7.19039 11.5248 8.07273C11.5619 8.64859 11.1447 9.15324 10.5728 9.22598H9.14088V7.0975ZM10.3406 12.6702V12.6625H9.14088V10.3405H10.5341C10.8592 10.3405 12.0821 10.4489 12.0821 11.3157C12.0821 12.1826 11.5016 12.6702 10.3406 12.6702Z"
            fill="#666666" />
    </g>
    <defs>
        <clipPath id="clip0">
            <rect fill="white" height="20" width="20" />
        </clipPath>
    </defs>
</svg>
