<svg fill="none" height="26" viewBox="0 0 22 26" width="22" xmlns="http://www.w3.org/2000/svg">
    <g clip-path="url(#clip0)">
        <path
            d="M12.925 19.0664H0.275008C0.123208 19.0664 0 19.3285 0 19.6514C0 19.9743 0.123208 20.2364 0.275008 20.2364H12.925C13.0768 20.2364 13.2 19.9743 13.2 19.6514C13.2 19.3285 13.0768 19.0664 12.925 19.0664Z"
            fill="white" />
        <path
            d="M19.0055 19.0664H16.1944C16.1607 19.0664 16.1333 19.3285 16.1333 19.6514C16.1333 19.9743 16.1607 20.2364 16.1944 20.2364H19.0055C19.0393 20.2364 19.0667 19.9743 19.0667 19.6514C19.0667 19.3285 19.0393 19.0664 19.0055 19.0664Z"
            fill="white" />
        <path
            d="M17.2333 12.1328H0.366677C0.164278 12.1328 0 12.3949 0 12.7178C0 13.0407 0.164278 13.3028 0.366677 13.3028H17.2333C17.4357 13.3028 17.6 13.0407 17.6 12.7178C17.6 12.3949 17.4357 12.1328 17.2333 12.1328Z"
            fill="white" />
        <path
            d="M21.5417 5.74219H0.458348C0.205348 5.74219 0 6.00424 0 6.32716C0 6.65009 0.205348 6.91219 0.458348 6.91219H21.5417C21.7947 6.91219 22 6.65009 22 6.32716C22 6.00424 21.7947 5.74219 21.5417 5.74219Z"
            fill="white" />
    </g>
    <defs>
        <clipPath id="clip0">
            <rect fill="white" height="26" transform="matrix(1 0 0 -1 0 26)" width="22" />
        </clipPath>
    </defs>
</svg>
