<svg fill="none" height="18" viewBox="0 0 26 18" width="26" xmlns="http://www.w3.org/2000/svg">
    <path
        d="M8.91452 17.7716C9.07545 17.9237 9.28498 18 9.49532 18C9.70567 18 9.91561 17.9237 10.0761 17.7716C10.3968 17.4677 10.3968 16.9749 10.0761 16.6711L2.80384 9.7783H25.1786C25.6324 9.7783 26 9.4299 26 9.00022C26 8.57053 25.6328 8.22175 25.1786 8.22175H2.80384L10.0761 1.32859C10.3968 1.02471 10.3968 0.531929 10.0761 0.228053C9.7555 -0.075824 9.23556 -0.0762111 8.91452 0.228053L0.240469 8.44976C-0.0801565 8.75402 -0.0801565 9.24642 0.240469 9.55029L8.91452 17.7716Z"
        fill="#444444" />
</svg>
