<svg fill="none" height="8" viewBox="0 0 44 8" width="44" xmlns="http://www.w3.org/2000/svg">
    <path
        d="M0 4.3956C0 6.50549 2.01517 8 4.05463 8C6.09408 8 8 6.50549 8 4.3956C8 2.28571 6.7739 0 4.73445 0C2.69499 0 0 2.28571 0 4.3956Z"
        fill="#E0E0E0" />
    <path
        d="M18 4.3956C18 6.50549 20.0152 8 22.0546 8C24.0941 8 26 6.50549 26 4.3956C26 2.28571 24.7739 0 22.7344 0C20.695 0 18 2.28571 18 4.3956Z"
        fill="#6258FB" />
    <path
        d="M36 4.3956C36 6.50549 38.0152 8 40.0546 8C42.0941 8 44 6.50549 44 4.3956C44 2.28571 42.7739 0 40.7344 0C38.695 0 36 2.28571 36 4.3956Z"
        fill="#E0E0E0" />
</svg>
