<svg fill="none" height="176" viewBox="0 0 375 176" width="375" xmlns="http://www.w3.org/2000/svg">
    <path
        d="M-62.729 -26.4227C-25.4199 -134.631 53.7647 -189.151 191.646 -145.767C329.528 -102.383 424.781 7.0227 387.472 115.231C350.163 223.44 269.99 103.191 132.109 59.8067C-5.77288 16.4227 -100.038 81.786 -62.729 -26.4227Z"
        fill="url(#paint0_linear)" fill-opacity="0.42" />
    <path
        d="M-59.3458 -15.8576C-32.9927 -127.153 40.0293 -187.699 180.677 -154.396C321.325 -121.093 426.24 -18.4131 399.887 92.882C373.534 204.177 282.481 89.5049 141.833 56.2016C1.18512 22.8982 -85.6989 95.4375 -59.3458 -15.8576Z"
        fill="url(#paint1_linear)" />
    <defs>
        <linearGradient gradientUnits="userSpaceOnUse" id="paint0_linear" x1="138.634" x2="168.93"
            y1="126.888" y2="-21.2336">
            <stop stop-color="#867EFF" />
            <stop offset="1" stop-color="#6258FB" />
        </linearGradient>
        <linearGradient gradientUnits="userSpaceOnUse" id="paint1_linear" x1="154.834" x2="174.354"
            y1="123" y2="-27.2881">
            <stop stop-color="#867EFF" />
            <stop offset="1" stop-color="#6258FB" />
        </linearGradient>
    </defs>
</svg>
